<?xml version="1.0" standalone="no"?>
<!DOCTYPE svg PUBLIC "-//W3C//DTD SVG 20010904//EN"
 "http://www.w3.org/TR/2001/REC-SVG-20010904/DTD/svg10.dtd">
<svg version="1.0" xmlns="http://www.w3.org/2000/svg"
 width="439.000000pt" height="439.000000pt" viewBox="0 0 439.000000 439.000000"
 preserveAspectRatio="xMidYMid meet">
<metadata>
Created by potrace 1.11, written by Peter Selinger 2001-2013
</metadata>
<g transform="translate(0.000000,439.000000) scale(0.100000,-0.100000)"
fill="#000000" stroke="none">
<path d="M3913 3637 c-32 -12 -106 -79 -153 -138 -71 -90 -147 -152 -230 -190
-36 -16 -73 -34 -82 -39 -21 -12 -48 -3 -48 16 0 8 7 25 16 39 12 18 13 28 4
44 -15 29 -44 34 -172 29 -122 -4 -164 -19 -172 -62 -2 -11 -9 -48 -14 -81 -5
-33 -26 -92 -45 -130 -19 -39 -50 -99 -67 -135 -18 -36 -41 -72 -52 -81 -10
-9 -18 -28 -18 -43 0 -28 -58 -146 -71 -146 -5 0 -15 -15 -24 -32 -17 -38 -33
-64 -56 -90 -9 -10 -29 -44 -45 -76 -15 -31 -32 -58 -36 -60 -4 -2 -8 -8 -8
-13 0 -17 -40 -99 -48 -99 -4 0 -25 -29 -45 -64 -21 -35 -44 -70 -52 -76 -8
-7 -15 -18 -15 -24 0 -6 -14 -27 -30 -46 -101 -118 -120 -141 -120 -150 0 -4
24 -18 53 -31 44 -20 69 -23 167 -24 95 0 122 4 155 20 l40 20 6 95 c5 91 8
100 67 222 34 70 62 132 62 138 0 5 3 10 8 10 4 0 32 49 62 108 30 59 58 109
61 112 3 3 25 41 49 85 24 44 56 103 71 130 16 28 34 61 41 75 7 14 25 43 40
64 16 21 28 45 28 53 0 7 4 13 8 13 5 0 17 16 28 35 22 42 48 53 71 30 25 -25
59 -35 123 -35 43 0 59 -4 64 -16 5 -14 -8 -51 -23 -64 -3 -3 -14 -21 -25 -40
-38 -72 -69 -125 -75 -130 -3 -3 -12 -17 -20 -32 -8 -16 -18 -28 -23 -28 -4 0
-8 -5 -8 -11 0 -11 -76 -138 -89 -149 -3 -3 -15 -22 -25 -42 -11 -21 -23 -38
-28 -38 -4 0 -8 -6 -8 -14 0 -8 -6 -21 -14 -28 -7 -8 -16 -23 -20 -34 -3 -11
-14 -29 -24 -40 -17 -20 -24 -32 -64 -103 -11 -20 -23 -38 -27 -41 -3 -3 -17
-25 -30 -50 -14 -25 -37 -65 -53 -90 -74 -121 -98 -200 -78 -259 7 -23 16 -41
19 -41 3 0 21 -14 39 -30 46 -40 99 -57 118 -38 8 8 30 60 50 117 40 118 252
545 291 588 7 8 20 31 30 51 9 20 22 42 28 48 5 6 19 28 30 50 11 21 25 44 31
50 6 7 17 26 24 43 7 17 16 31 20 31 4 0 13 15 21 33 7 17 16 34 19 37 3 3 20
28 38 56 18 28 40 61 50 73 9 11 32 45 51 75 41 64 69 76 171 76 59 0 84 5
127 27 30 14 58 33 61 42 3 9 12 22 19 30 8 7 13 23 11 35 -3 20 -9 21 -108
23 -130 4 -150 8 -150 33 0 19 34 85 57 108 7 7 13 18 13 23 0 5 9 20 21 32
62 66 88 147 55 169 -16 11 -87 8 -123 -5z"/>
<path d="M1110 3389 c-57 -11 -178 -58 -209 -81 -13 -10 -28 -18 -33 -18 -5 0
-14 -4 -21 -10 -51 -41 -76 -60 -80 -60 -11 0 -190 -189 -237 -250 -27 -36
-54 -70 -60 -77 -5 -7 -10 -16 -10 -22 0 -5 -3 -11 -8 -13 -8 -3 -102 -152
-102 -161 0 -3 -15 -31 -33 -64 -17 -32 -41 -85 -51 -118 -11 -33 -23 -65 -28
-71 -16 -22 -38 -158 -38 -234 0 -157 31 -220 129 -266 61 -28 156 -33 199
-10 51 26 119 56 128 56 5 0 25 13 44 28 78 64 113 68 135 17 30 -72 77 -92
119 -50 14 14 26 30 26 36 0 12 94 175 166 285 28 44 61 98 73 120 12 21 37
64 56 94 18 30 37 66 40 80 4 14 10 27 13 30 12 9 42 80 42 100 0 12 -13 26
-32 36 -28 15 -59 16 -238 12 -224 -6 -242 -10 -297 -67 -37 -38 -44 -84 -15
-99 9 -5 53 -12 97 -16 88 -8 105 -17 105 -53 0 -26 -49 -123 -62 -123 -5 0
-8 -4 -8 -10 0 -17 -138 -170 -154 -170 -4 0 -17 -9 -29 -20 -34 -32 -122 -70
-162 -70 -26 0 -43 7 -60 26 -22 24 -25 36 -25 106 0 48 6 93 15 116 9 20 20
56 26 80 5 24 16 51 24 59 8 8 15 23 15 33 0 10 11 38 25 61 14 24 25 50 25
57 0 8 17 39 38 70 21 32 62 93 92 137 30 44 62 86 72 93 10 7 18 17 18 23 0
9 36 49 44 49 7 0 76 72 76 79 0 3 27 23 60 44 47 31 72 40 120 44 54 5 62 3
80 -17 21 -25 29 -117 11 -135 -5 -6 -16 -35 -25 -65 -16 -54 -16 -55 5 -72
12 -10 31 -18 44 -18 26 0 115 47 115 61 0 5 6 9 14 9 7 0 22 12 32 28 9 15
25 34 34 42 23 21 110 148 110 160 0 5 4 10 8 10 14 0 57 101 54 124 -2 12 -9
27 -14 34 -15 17 -127 15 -183 -3 -40 -14 -50 -14 -90 0 -49 16 -152 18 -225
4z"/>
<path d="M1713 3041 c-24 -11 -55 -32 -70 -47 -23 -23 -28 -36 -28 -82 0 -53
1 -56 40 -79 48 -28 94 -25 161 11 49 26 81 58 95 94 14 35 11 44 -20 81 -25
30 -37 35 -83 38 -38 3 -65 -2 -95 -16z"/>
<path d="M2215 2796 c-33 -7 -76 -20 -95 -28 -19 -8 -42 -18 -50 -21 -8 -4
-33 -18 -55 -32 -22 -14 -47 -28 -55 -32 -25 -12 -121 -102 -165 -155 -53 -64
-165 -248 -165 -271 0 -7 -7 -30 -15 -52 -8 -23 -14 -78 -15 -132 0 -80 3 -95
20 -111 43 -40 67 -47 116 -34 67 18 166 67 201 99 46 42 93 67 105 55 11 -11
2 -52 -13 -52 -5 0 -9 -6 -9 -14 0 -14 -53 -120 -120 -241 -22 -38 -45 -82
-51 -97 -6 -16 -15 -28 -20 -28 -5 0 -9 -4 -9 -9 0 -14 -81 -155 -91 -159 -5
-2 -9 -10 -9 -18 0 -8 -4 -14 -10 -14 -5 0 -10 -6 -10 -13 0 -12 -73 -130 -90
-147 -3 -3 -11 -17 -19 -32 -8 -15 -22 -37 -33 -47 -10 -11 -18 -24 -18 -30 0
-5 -13 -23 -30 -41 -16 -18 -30 -34 -30 -37 0 -9 -64 -68 -88 -80 -14 -8 -34
-11 -45 -7 -18 6 -19 12 -13 72 6 52 19 91 64 182 31 63 65 124 75 135 11 11
34 43 53 72 18 29 41 61 51 72 46 52 184 188 204 201 78 52 85 90 15 90 -83 0
-202 -65 -290 -157 -17 -18 -37 -33 -43 -33 -7 0 -13 -4 -13 -10 0 -8 -35 -49
-127 -147 -13 -13 -23 -26 -23 -29 0 -4 -43 -65 -77 -109 -12 -14 -76 -126
-90 -155 -59 -123 -84 -213 -90 -320 -6 -103 9 -144 59 -164 42 -18 94 -21
102 -7 3 5 18 12 33 16 29 6 143 76 177 107 11 10 28 20 38 24 10 3 18 9 18
13 0 11 69 81 80 81 5 0 16 12 24 28 8 15 22 37 33 49 62 73 181 231 191 253
3 8 10 20 14 25 5 6 32 46 61 90 28 44 55 82 58 85 8 6 39 57 70 115 12 22 31
54 43 70 26 36 136 230 136 240 0 5 17 35 38 69 21 34 44 77 52 96 7 19 19 42
26 50 7 8 20 35 30 60 9 25 22 52 29 60 6 8 20 33 30 55 11 22 25 45 32 52 6
7 15 23 19 36 3 12 20 51 36 86 24 52 28 68 19 88 -10 21 -17 23 -84 23 -69 0
-76 -2 -103 -30 -49 -51 -64 -70 -64 -80 0 -5 -4 -10 -10 -10 -5 0 -10 -4 -10
-10 0 -19 -140 -170 -157 -170 -6 0 -13 -7 -17 -15 -3 -8 -12 -15 -21 -15 -8
0 -15 -3 -15 -8 0 -13 -81 -43 -101 -37 -15 5 -19 16 -19 56 0 107 102 248
244 336 60 38 62 38 179 41 103 3 123 1 156 -17 22 -11 55 -23 74 -26 29 -6
37 -3 46 13 16 30 13 98 -4 116 -8 8 -15 17 -15 21 0 10 -23 30 -50 45 -35 19
-229 23 -305 6z"/>
<path d="M1545 2731 c-85 -29 -109 -55 -124 -137 -10 -54 -79 -231 -102 -260
-18 -23 -113 -222 -135 -283 -21 -59 -21 -68 -9 -99 24 -56 91 -96 120 -72 8
6 38 59 68 118 76 150 101 196 108 202 4 3 19 30 35 60 16 30 57 102 91 159
35 57 63 107 63 112 0 5 4 9 8 9 5 0 15 12 23 27 13 27 23 40 62 85 21 26 21
37 1 66 -14 20 -23 22 -102 21 -48 -1 -96 -4 -107 -8z"/>
</g>
</svg>
