<?xml version="1.0" standalone="no"?>
<!DOCTYPE svg PUBLIC "-//W3C//DTD SVG 20010904//EN"
 "http://www.w3.org/TR/2001/REC-SVG-20010904/DTD/svg10.dtd">
<svg version="1.0" xmlns="http://www.w3.org/2000/svg"
 width="628.000000pt" height="628.000000pt" viewBox="0 0 628.000000 628.000000"
 preserveAspectRatio="xMidYMid meet">
<metadata>
Created by potrace 1.11, written by Peter Selinger 2001-2013
</metadata>
<g transform="translate(0.000000,628.000000) scale(0.100000,-0.100000)"
fill="#000000" stroke="none">
<path d="M5560 4883 c0 -5 -6 -10 -12 -11 -23 -2 -43 -7 -56 -16 -7 -4 -16 -5
-19 -2 -3 3 -17 -6 -30 -20 -12 -14 -27 -23 -32 -19 -5 3 -12 -4 -16 -15 -4
-11 -17 -33 -31 -48 -45 -51 -49 -57 -49 -67 0 -5 -8 -9 -18 -9 -9 1 -17 -4
-17 -12 0 -8 -5 -14 -11 -14 -5 0 -8 -4 -5 -8 3 -5 -6 -15 -20 -22 -14 -8 -22
-20 -19 -27 2 -8 1 -11 -4 -8 -5 3 -12 1 -16 -5 -4 -6 -11 -8 -16 -4 -5 3 -9
2 -8 -3 3 -20 -2 -34 -11 -28 -5 3 -10 -1 -10 -10 0 -9 -4 -14 -9 -10 -5 3
-12 1 -16 -5 -4 -6 -10 -8 -15 -5 -5 3 -11 -4 -15 -15 -4 -11 -11 -18 -16 -15
-5 4 -9 0 -9 -7 0 -9 -3 -9 -10 2 -9 13 -10 13 -10 0 0 -8 -11 -20 -25 -27
-14 -6 -23 -7 -19 -2 3 5 0 9 -5 9 -6 0 -11 -5 -11 -11 0 -5 -4 -7 -10 -4 -5
3 -10 1 -10 -5 0 -7 -7 -9 -16 -6 -8 3 -12 2 -9 -4 4 -6 -3 -9 -14 -7 -23 4
-41 17 -22 17 7 0 9 5 6 10 -3 6 0 10 7 10 9 0 9 3 -2 10 -13 9 -13 10 0 10
12 0 13 2 1 9 -10 7 -10 10 -1 13 10 3 9 7 -2 18 -8 8 -17 22 -20 31 -6 15
-78 33 -78 19 0 -3 -9 -6 -20 -6 -11 0 -20 5 -20 11 0 5 -5 3 -10 -5 -5 -8
-10 -10 -10 -5 0 6 -40 10 -100 10 -55 0 -100 -4 -100 -8 0 -5 -4 -6 -9 -3 -5
3 -20 -5 -34 -18 -14 -13 -28 -21 -31 -18 -3 3 -6 0 -6 -7 0 -7 -4 -10 -9 -7
-4 3 -7 -6 -5 -19 1 -14 -1 -25 -6 -25 -4 0 -6 -14 -4 -31 3 -20 0 -28 -7 -23
-7 4 -7 -2 1 -16 9 -17 9 -21 0 -15 -9 5 -10 2 -6 -13 4 -11 2 -23 -3 -26 -6
-4 -8 -13 -4 -21 3 -8 0 -15 -7 -15 -6 0 -9 -4 -5 -9 3 -5 1 -12 -4 -16 -6 -3
-8 -12 -4 -20 3 -8 0 -15 -6 -15 -6 0 -11 -7 -11 -15 0 -8 -4 -15 -10 -15 -5
0 -9 -3 -9 -7 4 -22 -2 -33 -13 -27 -9 5 -9 3 1 -9 11 -14 11 -18 -3 -23 -10
-4 -15 -13 -12 -21 3 -8 2 -11 -3 -8 -11 6 -21 -7 -26 -37 -3 -13 -9 -24 -15
-26 -6 -2 -8 -8 -4 -13 3 -5 0 -9 -7 -9 -7 0 -10 -3 -6 -6 3 -3 -4 -17 -16
-30 -12 -14 -22 -35 -22 -47 0 -14 -5 -21 -14 -19 -12 3 -12 1 0 -14 8 -11 9
-15 2 -11 -8 5 -15 -1 -19 -18 -3 -14 -11 -25 -17 -25 -6 0 -8 -3 -4 -6 3 -4
-1 -13 -9 -21 -8 -9 -13 -22 -10 -29 3 -8 0 -13 -7 -11 -7 1 -11 -4 -9 -10 1
-7 -3 -13 -9 -13 -5 0 -7 -4 -4 -10 3 -5 1 -10 -4 -10 -6 0 -11 -6 -11 -13 0
-8 -9 -24 -20 -37 -11 -12 -17 -27 -14 -31 3 -5 0 -9 -6 -9 -7 0 -9 -7 -6 -16
3 -8 2 -12 -4 -9 -6 3 -10 -1 -10 -9 0 -9 -5 -16 -11 -16 -5 0 -7 -4 -4 -10 3
-5 2 -10 -3 -10 -6 0 -13 -11 -16 -25 -4 -17 -11 -23 -19 -19 -7 4 -9 4 -5 0
9 -11 -12 -67 -23 -60 -8 5 -13 -10 -10 -29 1 -5 -7 -11 -18 -14 -11 -3 -17
-11 -15 -18 3 -7 -4 -23 -15 -34 -12 -12 -18 -21 -14 -21 3 0 -2 -10 -13 -22
-13 -14 -14 -19 -4 -14 13 7 13 6 0 -6 -8 -7 -21 -25 -29 -40 -8 -15 -19 -25
-24 -21 -6 3 -7 1 -3 -5 3 -6 -4 -21 -16 -33 -13 -12 -17 -19 -10 -14 11 6 11
3 1 -13 -7 -12 -17 -18 -21 -16 -4 3 -8 -2 -8 -10 0 -8 -7 -22 -16 -30 -8 -9
-13 -16 -9 -16 4 0 -1 -7 -9 -16 -9 -8 -13 -20 -10 -26 4 -7 2 -8 -4 -4 -7 4
-14 -3 -18 -18 -3 -13 -12 -27 -21 -30 -8 -3 -11 -10 -8 -16 3 -6 -4 -10 -17
-11 -13 0 -18 -3 -11 -6 10 -3 10 -7 0 -18 -7 -7 -15 -11 -19 -8 -4 2 -5 -2
-2 -10 5 -15 -21 -31 -37 -22 -5 4 -6 0 -3 -8 3 -8 -8 -25 -26 -41 -17 -14
-26 -26 -18 -26 8 0 5 -5 -6 -11 -15 -9 -16 -13 -5 -20 11 -7 11 -9 1 -9 -8 0
-6 -7 7 -21 23 -25 67 -49 90 -49 9 0 22 -5 29 -12 9 -9 12 -9 12 3 0 11 2 11
9 1 4 -8 11 -13 15 -13 3 1 7 1 9 0 17 -4 127 -2 127 3 0 4 14 3 30 -2 17 -5
30 -5 30 0 0 5 6 7 14 4 8 -3 17 0 21 6 5 8 11 8 21 -1 11 -9 14 -9 14 1 0 9
3 10 14 1 11 -9 15 -8 20 4 3 9 10 13 16 10 5 -3 10 -1 10 5 0 6 5 8 10 5 6
-3 10 -1 10 5 0 6 4 9 9 6 5 -3 8 2 7 12 0 9 5 16 12 14 8 -1 11 2 7 8 -4 6
-1 17 5 25 10 11 10 15 1 15 -7 0 -9 5 -5 12 10 16 11 58 2 64 -5 3 -3 14 2
25 8 13 7 19 0 19 -6 0 -8 5 -5 10 4 6 11 8 16 5 5 -3 6 1 2 10 -3 10 0 21 8
26 12 7 12 9 -1 9 -12 0 -12 2 -2 9 7 4 14 20 16 35 2 16 7 31 12 34 5 4 10
14 12 22 2 8 11 23 20 33 9 10 16 27 17 38 1 12 7 24 14 28 11 7 17 25 20 54
1 5 7 5 14 1 7 -5 6 0 -3 11 -8 10 -10 16 -4 12 10 -6 37 35 39 59 0 6 8 19
18 28 9 10 17 29 17 42 0 14 4 22 10 19 6 -3 10 1 10 9 0 9 5 16 11 16 5 0 8
4 4 9 -3 6 2 14 11 19 9 5 15 12 15 15 -3 21 0 27 11 21 6 -4 8 -3 4 4 -6 11
29 81 49 94 5 4 6 8 2 8 -5 0 0 13 9 29 10 17 22 27 28 24 6 -3 5 0 -2 8 -10
11 -8 17 10 32 13 10 16 16 8 12 -10 -4 -9 -1 3 8 9 8 17 22 17 31 0 9 7 19
15 22 8 4 12 10 9 15 -3 5 0 9 6 9 6 0 8 5 5 10 -3 6 -1 10 4 10 6 0 10 3 9 8
-4 14 39 72 48 64 4 -4 2 2 -6 12 -8 11 -10 17 -4 13 11 -6 29 19 26 36 -1 4
3 7 8 7 6 0 10 6 10 14 0 8 7 17 16 20 8 3 12 10 9 16 -3 5 -1 10 5 10 6 0 9
4 6 9 -3 5 5 20 19 35 13 14 21 26 18 26 -3 0 1 8 8 17 12 14 12 16 -1 9 -8
-4 -6 0 5 9 11 9 19 20 18 25 -2 5 5 6 14 3 11 -4 14 -3 9 5 -8 13 20 6 42
-11 6 -5 12 -6 12 -2 0 4 7 2 15 -5 12 -10 15 -10 15 1 1 9 5 8 15 -5 11 -14
15 -16 15 -5 0 12 2 12 9 0 7 -11 9 -11 14 0 3 8 6 9 6 3 1 -6 12 -9 26 -6 62
11 92 -19 60 -62 -8 -10 -12 -23 -9 -27 5 -9 -11 -13 -30 -10 -5 1 -3 -6 5
-15 9 -12 9 -15 2 -10 -8 4 -13 1 -13 -8 0 -9 -4 -16 -10 -16 -5 0 -6 -7 -3
-17 4 -11 3 -14 -5 -9 -11 6 -17 -5 -13 -26 0 -5 -7 -8 -17 -9 -10 0 -12 -3
-5 -6 10 -3 9 -8 -2 -20 -8 -8 -12 -19 -9 -25 4 -6 2 -8 -4 -4 -6 3 -13 -3
-17 -14 -3 -11 -11 -20 -16 -20 -5 0 -8 -3 -8 -7 3 -20 -2 -34 -10 -29 -10 6
-24 -31 -21 -54 1 -8 -1 -12 -5 -8 -11 11 -33 -15 -27 -31 3 -9 1 -12 -6 -7
-11 6 -17 -6 -13 -27 1 -4 -6 -10 -14 -13 -8 -4 -15 -15 -15 -25 0 -11 -6 -22
-14 -25 -8 -3 -20 -19 -26 -35 -7 -16 -16 -26 -21 -24 -4 3 -6 -4 -4 -15 2
-13 -1 -20 -11 -20 -8 0 -12 -4 -9 -10 3 -5 1 -10 -5 -10 -6 0 -8 -4 -5 -10 3
-5 2 -10 -4 -10 -6 0 -13 -11 -17 -25 -3 -14 -10 -22 -15 -19 -5 3 -9 -2 -9
-10 0 -9 -4 -16 -9 -16 -5 0 -12 -11 -15 -25 -4 -14 -11 -25 -17 -25 -6 0 -8
-4 -4 -9 3 -5 1 -12 -5 -16 -6 -4 -8 -11 -4 -16 3 -5 0 -8 -7 -7 -7 2 -13 -3
-14 -10 0 -7 -6 -17 -14 -21 -7 -5 -11 -13 -7 -19 3 -5 -1 -13 -10 -16 -8 -3
-12 -10 -9 -16 3 -5 1 -10 -4 -10 -6 0 -11 -7 -11 -16 0 -9 -5 -12 -12 -8 -8
5 -9 2 -5 -10 4 -10 1 -19 -9 -23 -8 -3 -13 -12 -10 -20 3 -8 2 -12 -2 -10 -4
3 -16 -7 -26 -21 -11 -14 -14 -22 -8 -18 7 4 12 3 12 -2 0 -6 -7 -13 -16 -16
-8 -3 -13 -10 -10 -15 3 -5 -1 -12 -10 -15 -8 -3 -13 -10 -10 -15 3 -5 -1 -12
-10 -15 -9 -4 -14 -9 -11 -12 3 -4 -1 -13 -9 -21 -8 -8 -12 -19 -9 -24 4 -5 1
-9 -5 -9 -6 0 -8 -4 -5 -10 3 -5 3 -10 -2 -10 -12 0 -33 -51 -26 -63 3 -6 1
-7 -5 -3 -7 4 -13 -7 -18 -29 -3 -19 -11 -32 -16 -29 -6 4 -9 -14 -6 -50 1
-31 0 -56 -5 -56 -4 0 -1 -10 8 -23 8 -13 12 -27 8 -30 -3 -4 -1 -7 6 -7 7 0
19 -7 27 -15 12 -12 12 -15 2 -15 -7 0 2 -8 20 -16 17 -9 32 -22 32 -29 0 -17
27 -27 34 -12 2 7 5 4 5 -6 1 -10 6 -15 11 -12 6 3 10 2 10 -3 0 -5 14 -12 30
-14 17 -3 30 -1 30 3 0 5 6 6 14 3 8 -3 19 3 26 16 6 11 15 18 19 15 5 -2 12
12 16 33 4 20 11 43 17 50 6 6 8 12 4 12 -4 0 0 13 8 29 9 16 12 31 9 35 -4 3
-1 6 6 6 6 0 11 8 9 18 -2 9 2 16 9 15 6 -1 10 5 8 15 -1 9 3 20 9 24 7 5 6 8
-4 8 -10 0 -7 7 10 20 14 11 19 20 12 20 -8 0 -5 8 8 22 11 12 18 28 16 35 -3
6 0 13 5 15 6 2 11 12 13 21 1 10 8 22 15 26 7 5 12 10 11 12 -5 12 13 58 21
53 5 -3 9 1 9 9 0 8 8 25 19 38 10 13 16 30 13 38 -2 8 0 11 5 8 9 -6 11 0 15
43 1 11 8 20 15 20 7 0 12 3 12 8 -3 19 2 33 10 28 8 -5 25 29 22 47 -1 4 4 7
9 7 6 0 10 7 10 15 0 8 4 15 9 15 5 0 12 11 15 25 4 14 11 25 16 25 5 0 7 7 4
15 -4 8 -2 15 4 15 5 0 12 9 15 21 3 12 10 19 15 15 5 -3 9 1 10 9 1 8 3 22 4
30 1 8 8 15 15 15 8 0 11 5 8 10 -3 6 2 10 12 10 15 0 16 2 3 10 -8 5 -10 10
-4 10 7 0 14 8 18 18 11 33 47 87 56 85 5 -2 7 4 4 12 -4 8 -1 15 5 15 6 0 10
3 10 8 -3 20 2 32 13 26 6 -4 8 -3 4 4 -3 6 1 17 9 25 8 9 15 20 15 26 0 6 11
21 25 33 14 12 25 26 25 32 0 6 -5 4 -10 -4 -5 -8 -10 -10 -10 -4 0 13 25 36
31 29 3 -2 6 5 6 16 1 12 8 26 15 32 8 7 21 21 28 31 13 18 13 19 0 12 -8 -4
-5 1 8 10 12 9 22 21 22 27 0 5 8 16 18 24 10 8 11 11 2 7 -12 -7 -13 -5 -3 8
7 8 9 18 5 22 -4 4 -2 7 3 6 22 -5 36 1 29 11 -3 6 0 15 7 20 8 4 14 13 14 18
0 5 12 20 27 34 15 14 24 28 20 33 -4 4 -2 4 5 0 6 -3 14 -2 17 2 3 5 16 9 28
8 13 -1 29 4 37 12 9 9 17 10 25 3 9 -7 17 -7 26 2 10 10 11 9 5 -1 -6 -11 -3
-12 13 -3 28 15 89 14 95 -1 3 -8 6 -5 6 6 1 16 3 16 17 6 12 -11 15 -11 12 1
-2 9 4 13 15 11 9 -2 17 2 17 8 0 6 4 9 9 5 5 -3 19 9 32 26 16 23 24 28 30
17 6 -9 9 -7 9 10 0 12 5 22 10 22 6 0 10 7 10 15 0 8 6 15 13 15 7 0 8 3 2 8
-5 4 -10 14 -10 22 0 8 5 18 10 23 6 4 1 10 -12 13 -13 4 -21 10 -18 14 3 5
-29 10 -70 12 -41 2 -75 1 -75 -2 0 -10 -85 2 -99 14 -12 8 -13 8 -7 -1 4 -7
2 -13 -3 -13 -6 0 -11 7 -11 16 0 8 -4 12 -10 9 -14 -9 -12 1 5 35 9 17 20 30
26 30 6 0 8 4 4 9 -3 5 -1 12 5 16 6 4 8 10 5 15 -3 5 0 12 6 16 8 4 9 3 5 -4
-4 -7 -5 -12 -2 -12 3 0 13 16 22 35 10 21 21 32 28 28 6 -4 5 1 -3 10 -12 16
-12 17 5 11 10 -4 16 -4 12 1 -4 4 1 20 11 34 10 14 29 49 43 78 23 47 24 53
9 69 -9 9 -10 14 -3 10 21 -12 13 4 -14 29 -21 19 -30 22 -45 14 -11 -5 -19
-6 -19 -1 0 5 -7 9 -15 9 -8 0 -15 -5 -15 -10 0 -5 -7 -4 -15 3 -8 7 -15 8
-15 3z"/>
<path d="M2110 4572 c0 -7 -5 -10 -10 -7 -6 4 -17 1 -25 -5 -9 -7 -15 -8 -15
-2 0 13 -32 10 -48 -5 -7 -7 -18 -13 -23 -13 -6 0 -7 6 -3 13 4 6 -3 3 -16 -8
-15 -13 -21 -15 -16 -5 6 12 5 12 -6 -1 -7 -9 -19 -14 -25 -12 -7 3 -13 0 -13
-6 0 -5 -9 -8 -20 -6 -13 3 -18 0 -14 -7 5 -7 2 -9 -9 -5 -9 3 -18 0 -21 -9
-3 -9 -10 -12 -16 -9 -5 3 -10 1 -10 -5 0 -6 -4 -9 -9 -6 -5 3 -14 -1 -21 -9
-7 -8 -16 -12 -21 -9 -5 3 -9 0 -9 -7 0 -7 -3 -10 -6 -6 -9 8 -64 -21 -64 -33
0 -6 -7 -10 -16 -10 -9 0 -12 -5 -8 -12 5 -8 2 -9 -9 -5 -9 3 -16 3 -14 -1 1
-4 -2 -8 -7 -9 -5 0 -13 -8 -18 -17 -5 -9 -16 -16 -23 -16 -8 0 -14 -4 -13 -9
2 -5 0 -9 -5 -10 -4 0 -19 -13 -33 -28 -15 -16 -31 -26 -38 -25 -6 2 -8 0 -4
-4 8 -8 -29 -44 -45 -44 -6 0 -8 -3 -4 -6 8 -8 -16 -33 -25 -27 -4 2 -5 -3 -2
-11 6 -15 -6 -21 -29 -17 -5 1 -6 -3 -3 -8 4 -5 0 -16 -8 -24 -8 -8 -12 -17
-9 -21 4 -3 -1 -6 -9 -6 -15 0 -33 -26 -29 -43 1 -5 -3 -6 -8 -3 -5 4 -12 -2
-16 -13 -3 -11 -13 -25 -23 -33 -16 -12 -16 -11 -2 7 14 18 14 19 -2 7 -10 -8
-17 -17 -16 -20 2 -20 -3 -32 -12 -27 -5 3 -7 0 -5 -8 3 -7 -5 -25 -19 -40
-13 -14 -21 -28 -18 -31 3 -4 -3 -15 -14 -26 -31 -31 -44 -49 -44 -59 0 -5
-11 -23 -25 -39 -13 -16 -22 -32 -18 -36 3 -3 1 -6 -6 -6 -7 0 -9 -4 -6 -10 3
-5 1 -10 -4 -10 -6 0 -11 -9 -11 -20 0 -11 -4 -20 -10 -20 -5 0 -10 -7 -10
-15 0 -8 -6 -15 -12 -15 -9 0 -8 -4 2 -10 10 -6 11 -10 3 -10 -7 0 -13 -7 -13
-15 0 -8 -4 -15 -8 -15 -4 0 -16 -22 -27 -50 -11 -27 -24 -50 -30 -50 -5 0 -3
-5 5 -10 8 -5 10 -10 4 -10 -6 0 -16 -11 -22 -25 -8 -17 -8 -25 -1 -25 6 0 3
-7 -5 -16 -14 -13 -18 -28 -15 -50 0 -3 -7 -17 -16 -31 -9 -14 -12 -22 -6 -19
6 4 11 2 11 -3 0 -6 -5 -11 -11 -11 -5 0 -7 -4 -4 -10 3 -5 2 -10 -3 -10 -5 0
-8 -13 -7 -30 1 -16 -1 -30 -5 -30 -10 0 -6 -54 5 -62 7 -5 7 -8 0 -8 -11 0
-11 -83 0 -100 3 -5 0 -10 -7 -10 -9 0 -9 -3 2 -10 11 -7 11 -10 2 -10 -9 0
-10 -5 -3 -19 6 -10 7 -21 4 -25 -4 -3 2 -13 13 -21 15 -11 16 -14 4 -15 -12
0 -13 -2 -1 -9 7 -5 10 -14 7 -20 -4 -6 -2 -11 4 -11 6 0 9 -4 6 -9 -3 -5 1
-11 9 -15 8 -3 15 -12 15 -21 0 -8 7 -15 16 -15 8 0 12 -4 9 -10 -3 -5 1 -10
10 -10 8 0 18 -7 21 -15 4 -8 10 -12 15 -9 5 3 9 1 9 -3 0 -5 9 -14 21 -21 17
-11 20 -11 13 0 -6 11 -5 11 9 0 9 -8 21 -11 27 -7 5 3 10 2 10 -4 0 -6 7 -7
17 -4 12 5 14 3 8 -8 -8 -12 -6 -12 8 0 11 8 17 9 17 2 0 -7 8 -8 25 -1 16 6
25 6 25 -1 0 -6 6 -6 18 -1 9 5 29 9 44 8 14 -1 24 3 21 8 -4 5 1 7 10 3 10
-3 17 -2 17 3 0 6 9 10 19 10 11 0 22 6 24 13 4 9 6 9 6 0 1 -9 11 -7 35 6 19
11 37 17 40 14 3 -4 6 -1 6 6 0 7 4 10 9 6 6 -3 14 3 20 12 5 10 12 17 15 16
15 -7 26 -2 20 9 -5 8 -2 9 9 5 10 -3 17 -2 17 3 0 6 6 10 14 10 8 0 17 7 20
16 3 8 10 13 15 10 5 -4 11 -2 13 3 5 15 53 18 50 4 -1 -7 2 -13 8 -13 5 0 10
-9 10 -20 0 -11 7 -20 16 -20 8 0 12 -4 9 -10 -3 -5 1 -10 10 -10 11 0 15 -5
11 -16 -3 -8 -2 -12 4 -9 6 3 10 1 10 -6 0 -7 3 -10 6 -6 3 3 17 2 30 -3 16
-7 24 -6 24 1 0 6 7 8 16 5 12 -5 15 -2 10 10 -4 11 -2 15 8 11 9 -4 24 9 40
34 15 21 23 39 20 39 -4 0 0 8 9 18 10 10 14 22 10 25 -3 4 -1 7 5 7 7 0 12 7
12 15 0 8 4 15 9 15 9 0 26 48 22 63 -1 5 3 6 9 2 5 -3 10 1 10 10 0 10 5 13
12 9 6 -4 8 -3 4 4 -3 6 2 18 11 28 10 10 16 18 15 18 -2 1 2 13 9 28 6 15 17
25 23 21 6 -3 8 -3 4 1 -9 10 31 86 48 93 8 3 14 13 14 22 0 9 9 24 20 34 12
10 18 21 15 26 -2 5 2 12 11 15 8 3 12 10 9 16 -3 5 -1 10 4 10 6 0 11 7 11
15 0 9 6 18 14 21 9 3 12 12 9 21 -5 12 -3 14 7 8 10 -6 12 -4 7 8 -4 10 0 20
11 26 9 6 14 11 9 11 -4 0 0 11 9 25 9 14 20 22 25 20 4 -3 6 4 4 15 -2 11 1
20 6 20 6 0 7 5 4 10 -3 6 0 13 8 16 8 3 20 23 27 44 7 22 17 37 21 34 4 -2 6
5 4 16 -2 11 0 20 5 20 5 0 5 13 0 30 -10 35 -50 90 -50 69 0 -9 -3 -10 -8 -3
-11 17 -42 25 -42 11 0 -8 -4 -6 -10 3 -7 11 -10 11 -10 2 0 -10 -5 -10 -20
-2 -13 7 -20 7 -20 1 0 -6 -6 -8 -12 -6 -31 11 -88 12 -88 1 0 -6 -5 -4 -10 4
-7 11 -10 11 -10 2 0 -10 -5 -10 -20 -2 -12 6 -20 7 -20 1 0 -6 -11 -6 -30 -1
-17 5 -30 5 -30 0 0 -5 -6 -7 -12 -5 -26 9 -88 12 -88 4 0 -5 -6 -6 -14 -3 -8
3 -23 1 -33 -5 -11 -5 -25 -6 -33 -1 -9 5 -20 4 -29 -3 -12 -10 -13 -9 -6 2 6
11 5 12 -6 5 -8 -5 -16 -9 -19 -10 -37 -11 -50 -18 -50 -26 0 -5 -4 -7 -9 -3
-6 3 -15 -4 -21 -15 -6 -11 -15 -18 -21 -15 -5 4 -9 3 -8 -2 4 -16 -13 -43
-24 -36 -6 4 -7 1 -3 -6 5 -7 0 -18 -10 -26 -13 -10 -15 -14 -5 -15 9 0 10 -4
3 -12 -14 -18 50 -82 67 -65 8 8 11 8 11 -1 0 -6 7 -9 17 -5 10 4 14 2 10 -4
-3 -5 0 -10 8 -10 8 0 15 5 15 10 0 5 6 4 14 -2 11 -9 15 -9 19 1 4 11 6 11 6
0 1 -9 6 -10 20 -2 15 7 23 6 35 -5 8 -8 23 -15 32 -15 14 0 15 -3 6 -12 -9
-9 -7 -14 6 -24 11 -9 13 -13 4 -14 -7 0 -11 -4 -7 -9 3 -5 1 -12 -5 -16 -6
-4 -8 -11 -5 -16 4 -5 -1 -9 -9 -9 -9 0 -13 -7 -11 -19 2 -11 -3 -22 -11 -25
-9 -3 -12 -10 -9 -16 3 -5 1 -10 -4 -10 -6 0 -11 -7 -11 -15 0 -8 -6 -14 -12
-12 -7 1 -12 -4 -11 -10 2 -7 -1 -13 -6 -13 -5 0 -13 -9 -16 -21 -4 -11 -9
-18 -12 -15 -7 7 -33 -19 -33 -33 0 -6 -7 -11 -16 -11 -8 0 -13 -4 -9 -9 3 -5
-4 -12 -14 -16 -11 -3 -23 -14 -26 -23 -3 -9 -17 -26 -32 -36 -14 -11 -23 -13
-18 -6 5 9 4 11 -3 6 -7 -4 -12 -14 -12 -22 0 -8 -4 -12 -10 -9 -5 3 -10 -2
-11 -12 0 -11 -3 -13 -6 -5 -4 9 -10 7 -22 -7 -10 -12 -21 -18 -25 -14 -3 3
-6 2 -6 -4 0 -5 -6 -10 -12 -11 -41 -5 -55 -9 -75 -20 -17 -9 -22 -9 -26 2 -3
7 -16 12 -29 11 -28 -3 -60 28 -52 49 4 9 1 16 -6 16 -9 0 -9 4 1 17 12 15 12
16 -1 8 -13 -8 -13 -7 -1 8 9 12 10 17 2 17 -8 0 -9 5 -2 18 6 10 6 24 1 32
-5 8 -6 19 -2 25 7 11 8 17 10 53 2 16 6 21 15 16 9 -6 9 -4 -1 8 -9 12 -10
18 -2 23 6 4 9 12 7 18 -2 7 3 18 10 26 11 10 11 16 3 21 -8 5 -6 9 6 14 9 3
14 9 10 13 -3 3 2 15 11 26 10 11 12 17 6 13 -7 -4 -13 -3 -13 3 0 5 5 11 11
13 5 2 11 11 12 20 2 9 9 23 16 32 7 9 10 16 7 16 -4 0 0 7 8 16 9 8 14 19 11
23 -2 5 5 18 16 29 13 15 15 22 7 22 -8 0 -7 4 4 10 9 6 19 24 23 40 4 18 11
27 18 23 6 -4 8 0 4 10 -4 11 -1 17 8 17 7 0 17 5 21 12 4 7 3 8 -4 4 -7 -4
-12 -2 -12 4 0 6 7 13 15 16 8 4 13 10 10 14 -2 4 4 15 15 25 11 10 20 24 20
31 0 7 6 17 14 21 8 4 14 10 13 13 -4 11 30 49 37 42 4 -4 7 -2 5 3 -4 18 19
62 37 69 9 4 14 9 11 12 -3 3 6 17 21 31 15 14 26 29 24 34 -1 5 4 8 10 7 7
-2 12 3 10 10 -2 11 10 16 31 13 4 0 6 2 6 6 -3 18 1 36 7 30 7 -6 34 15 29
23 -2 3 3 11 11 18 8 7 14 10 14 6 0 -4 9 5 21 20 11 14 27 26 35 26 8 0 13 6
11 13 -1 6 4 11 11 10 6 -2 12 2 12 8 0 5 4 8 9 5 5 -3 11 1 15 9 3 8 14 15
25 15 11 0 23 5 26 10 4 6 11 8 16 5 5 -4 9 -1 9 5 0 8 6 8 20 0 15 -8 20 -8
20 2 0 9 3 9 10 -2 6 -9 10 -11 10 -3 0 7 7 10 15 7 8 -4 12 -11 8 -18 -4 -6
2 -4 12 4 11 9 16 10 11 2 -4 -7 -1 -15 9 -18 9 -4 14 -13 11 -20 -3 -8 0 -14
6 -14 7 0 7 -4 -1 -14 -10 -11 -8 -17 6 -25 11 -6 13 -11 5 -11 -7 0 -10 -4
-7 -10 3 -5 2 -10 -2 -10 -5 0 -8 -13 -7 -30 1 -16 -2 -30 -7 -30 -5 0 -9 -12
-9 -26 0 -14 -4 -23 -8 -20 -5 3 -9 -1 -10 -9 -5 -55 -2 -90 7 -93 6 -2 11
-11 11 -19 0 -9 3 -13 6 -10 4 3 16 2 27 -4 15 -9 18 -8 12 3 -6 10 -5 11 5 1
11 -10 17 -10 29 0 12 9 13 9 7 0 -4 -7 -2 -13 3 -13 6 0 11 5 11 11 0 6 6 9
13 6 6 -2 18 3 25 12 10 12 12 13 6 1 -7 -13 -6 -13 11 0 37 29 53 48 47 56
-4 4 1 4 11 1 11 -4 17 -1 17 9 0 8 4 13 8 10 12 -7 65 41 57 53 -3 6 -2 11 2
11 5 0 18 7 29 16 10 8 13 12 5 8 -9 -5 -12 -3 -7 4 4 7 15 12 24 13 10 0 12
3 5 6 -8 3 -2 15 18 33 17 15 28 33 25 39 -5 7 -1 9 9 5 11 -5 14 -2 8 12 -4
12 -3 15 5 10 7 -4 12 -1 12 7 0 8 10 25 23 39 13 14 21 30 19 36 -2 7 2 12 9
12 7 0 10 3 6 6 -3 4 1 13 9 21 8 8 12 19 9 24 -4 5 -2 9 3 9 6 0 9 13 8 30
-1 16 3 32 8 34 6 2 4 5 -4 5 -12 1 -12 3 -2 10 11 6 10 11 -3 25 -9 9 -13 16
-10 16 4 0 -3 9 -16 19 -17 14 -26 16 -31 8 -5 -8 -8 -7 -8 3 0 9 -3 11 -8 5
-10 -14 -42 -15 -42 -1 0 6 -5 4 -10 -4 -5 -8 -10 -10 -10 -5 0 6 -16 10 -35
10 -19 0 -35 -3 -35 -7 0 -4 -7 -5 -15 -2 -8 4 -15 1 -15 -6 0 -7 -7 -10 -15
-6 -8 3 -15 2 -15 -3 0 -4 -10 -7 -22 -6 -13 1 -26 -3 -30 -9 -5 -7 -8 -3 -8
9 0 16 -2 17 -10 5 -8 -12 -10 -12 -16 4 -5 14 -9 15 -15 4 -5 -7 -9 -8 -9 -2
0 5 -19 11 -42 13 -23 1 -44 4 -47 6 -2 3 -10 0 -18 -6 -7 -6 -13 -7 -13 -2 0
5 -9 9 -20 9 -11 0 -20 -5 -20 -11 0 -5 -5 -3 -10 5 -7 11 -10 11 -10 2z"/>
<path d="M2899 4156 c-2 -3 -24 -5 -49 -7 -25 -2 -48 -8 -52 -14 -5 -6 -8 -5
-8 3 0 8 -8 5 -22 -8 -12 -11 -30 -20 -40 -20 -11 0 -17 -4 -14 -8 3 -5 -8
-16 -25 -26 -16 -9 -29 -23 -29 -30 0 -8 -7 -17 -16 -20 -8 -3 -12 -10 -9 -16
3 -5 1 -10 -5 -10 -6 0 -8 -5 -4 -12 4 -7 7 -26 6 -43 -2 -21 7 -39 29 -63 17
-18 35 -30 40 -27 5 4 9 -1 9 -9 0 -9 5 -16 11 -16 5 0 7 6 3 13 -6 8 -3 8 9
-1 9 -8 21 -11 27 -7 5 3 10 0 10 -7 0 -9 3 -9 10 2 9 13 10 13 10 0 1 -12 3
-11 11 3 8 14 14 16 25 6 9 -7 14 -8 14 -1 0 6 11 9 26 6 18 -3 23 -1 18 7 -5
8 -2 10 9 6 9 -3 18 0 21 9 3 9 10 12 16 9 5 -3 10 1 10 9 0 9 6 15 13 14 6
-2 11 3 10 10 -2 6 4 12 13 12 8 0 12 5 9 10 -3 6 1 10 9 10 9 0 15 6 14 13
-2 6 2 11 8 10 6 -1 11 5 11 13 0 8 -4 14 -9 14 -5 0 -4 9 2 19 13 26 13 44
-2 35 -7 -4 -8 -3 -4 4 9 15 -4 63 -15 56 -9 -5 -13 11 -9 31 1 6 -2 7 -6 3
-4 -4 -13 -3 -21 4 -7 6 -16 8 -20 5 -3 -4 -13 -2 -23 3 -10 5 -19 8 -21 6z"/>
<path d="M3430 3851 c0 -6 -9 -8 -20 -6 -11 2 -22 -1 -26 -7 -4 -6 -10 -5 -15
3 -7 11 -9 10 -9 -4 0 -10 -4 -15 -10 -12 -5 3 -28 -3 -52 -15 -49 -24 -51
-24 -43 -7 4 6 -2 2 -12 -10 -10 -12 -29 -23 -43 -25 -14 -2 -33 -12 -43 -22
-9 -11 -20 -16 -24 -13 -3 4 -14 -3 -24 -14 -9 -11 -20 -20 -23 -20 -21 3 -26
0 -20 -11 5 -7 2 -9 -9 -5 -9 3 -18 0 -21 -9 -3 -8 -13 -14 -21 -14 -10 0 -13
-5 -9 -12 5 -8 2 -9 -10 -5 -10 4 -15 3 -11 -3 3 -6 1 -10 -5 -10 -6 0 -9 -4
-6 -9 6 -9 -22 -26 -36 -23 -4 1 -4 -6 -1 -15 4 -11 3 -14 -5 -9 -7 4 -12 4
-12 -1 -1 -4 -15 -24 -32 -43 -17 -19 -27 -28 -24 -20 4 8 0 6 -8 -4 -9 -11
-16 -24 -16 -29 0 -4 -5 -5 -12 -1 -6 4 -8 3 -5 -3 3 -5 -5 -21 -19 -36 -14
-15 -22 -27 -19 -27 3 0 -2 -13 -11 -29 -10 -17 -22 -27 -27 -24 -6 3 -7 1 -3
-5 3 -6 -1 -18 -10 -26 -8 -9 -12 -16 -8 -16 4 0 -1 -7 -12 -16 -10 -8 -13
-12 -6 -9 11 6 12 3 2 -14 -6 -13 -16 -19 -23 -14 -7 4 -5 -2 3 -12 8 -10 10
-16 3 -12 -8 5 -14 -4 -19 -28 -3 -19 -10 -33 -14 -30 -7 4 -18 -34 -23 -77
-1 -10 -4 -18 -8 -18 -3 0 -6 -8 -6 -17 0 -36 -3 -44 -15 -38 -7 4 -4 -1 6 -9
11 -9 14 -16 7 -16 -7 0 -9 -4 -6 -10 3 -5 0 -10 -7 -10 -10 0 -10 -2 -1 -8 8
-5 9 -13 3 -22 -5 -8 -5 -21 1 -32 7 -13 6 -18 -3 -18 -8 0 -9 -3 -3 -8 6 -4
10 -20 11 -37 0 -19 6 -29 14 -27 8 2 10 -3 6 -14 -4 -11 0 -18 14 -21 11 -3
20 -9 20 -14 0 -5 6 -9 14 -9 8 0 16 -4 18 -10 4 -14 68 -20 68 -6 0 6 5 4 10
-4 5 -8 10 -10 10 -4 0 7 13 10 31 8 16 -2 28 0 25 4 -2 4 4 9 15 10 43 4 49
6 49 14 0 4 9 8 19 8 10 0 21 7 25 15 3 8 11 12 18 10 8 -3 23 4 35 15 12 11
27 20 33 20 5 0 10 5 10 11 0 5 3 8 8 6 4 -3 12 1 19 8 10 11 10 15 0 18 -7 3
-4 6 6 6 27 1 31 4 48 25 14 17 16 17 22 3 3 -9 -1 -23 -9 -32 -9 -8 -13 -15
-9 -15 3 0 0 -10 -7 -22 -7 -13 -11 -26 -10 -30 1 -5 -3 -8 -10 -8 -6 0 -8 -3
-5 -7 4 -3 -4 -21 -17 -38 -19 -24 -22 -35 -13 -44 8 -8 7 -11 -7 -11 -9 0
-14 -5 -11 -10 3 -6 -1 -13 -10 -16 -9 -4 -14 -13 -11 -20 3 -8 1 -14 -5 -14
-6 0 -8 -4 -4 -9 3 -6 -1 -13 -9 -18 -14 -8 -16 -12 -16 -34 0 -5 -4 -7 -10
-4 -5 3 -7 0 -5 -7 3 -8 -4 -24 -15 -36 -12 -12 -18 -27 -14 -34 4 -7 3 -8 -4
-4 -11 6 -16 -6 -13 -26 0 -5 -4 -8 -10 -8 -5 0 -7 -4 -4 -10 3 -5 -1 -10 -10
-10 -9 0 -13 -5 -10 -10 4 -6 1 -17 -5 -25 -7 -8 -9 -15 -4 -15 4 0 0 -6 -11
-13 -10 -8 -15 -19 -11 -25 7 -11 -6 -17 -28 -13 -5 1 -4 -5 4 -13 7 -9 8 -16
2 -16 -5 0 -15 -13 -21 -30 -5 -16 -15 -30 -21 -30 -6 0 -9 -4 -6 -9 3 -5 -4
-11 -17 -15 -18 -5 -20 -8 -7 -16 13 -9 13 -12 -2 -21 -10 -5 -18 -16 -18 -23
0 -8 -7 -16 -15 -20 -8 -3 -14 -10 -13 -15 2 -5 -6 -17 -17 -26 -11 -9 -14
-14 -7 -10 20 10 14 -5 -14 -30 -15 -14 -22 -25 -15 -25 6 0 2 -9 -9 -20 -12
-12 -18 -25 -15 -30 4 -6 -1 -10 -10 -10 -9 0 -13 -5 -10 -10 3 -6 1 -10 -4
-10 -6 0 -11 -6 -11 -14 0 -8 -7 -17 -16 -20 -8 -3 -12 -10 -9 -16 3 -5 1 -10
-5 -10 -6 0 -15 -11 -20 -25 -5 -14 -14 -25 -20 -25 -6 0 -9 -4 -6 -9 3 -5 -1
-12 -9 -15 -8 -3 -14 -9 -13 -13 2 -4 -1 -10 -7 -12 -5 -2 -16 -17 -24 -32 -7
-16 -17 -26 -22 -23 -5 3 -9 -2 -9 -11 0 -8 -7 -18 -15 -21 -8 -4 -15 -13 -15
-22 0 -8 -3 -13 -6 -9 -4 3 -14 -3 -23 -14 -9 -11 -26 -21 -38 -22 -13 -1 -23
-5 -23 -10 0 -4 -6 -2 -13 4 -14 13 -21 53 -8 44 9 -5 6 38 -3 54 -4 5 1 14
10 19 11 6 15 17 11 31 -3 15 1 24 14 32 11 5 19 15 18 22 -4 20 13 67 23 67
6 0 7 7 4 16 -3 8 -2 13 3 10 5 -3 12 5 15 19 4 14 11 25 17 25 6 0 7 5 4 10
-3 6 -1 10 5 10 6 0 9 4 5 9 -3 6 3 14 12 20 10 6 14 11 10 11 -5 0 -1 7 8 16
9 9 13 24 10 32 -3 9 -3 13 1 10 8 -8 34 14 27 25 -2 4 1 7 7 7 6 0 8 5 5 10
-3 6 -1 10 5 10 6 0 15 11 22 25 6 13 15 22 21 18 6 -3 7 -1 3 5 -8 14 24 53
37 45 6 -3 7 -1 3 5 -4 7 -2 12 4 12 6 0 9 4 5 9 -3 6 4 15 16 21 11 7 18 14
15 17 -3 3 9 17 26 30 18 12 29 23 25 23 -8 0 35 45 43 45 3 1 29 25 58 55 28
29 52 50 52 45 0 -5 7 0 15 11 8 10 15 16 15 12 0 -5 9 1 20 12 11 11 19 26
17 32 -1 7 4 12 10 11 10 -2 10 3 0 25 -6 15 -16 30 -22 34 -13 10 -100 10
-109 1 -4 -5 -17 -8 -29 -8 -12 -1 -21 -6 -20 -12 1 -6 -3 -10 -10 -10 -32 1
-48 -4 -42 -13 3 -5 0 -10 -8 -10 -8 0 -20 -7 -27 -15 -7 -9 -19 -14 -26 -11
-6 2 -15 -5 -18 -17 -5 -18 -8 -20 -16 -7 -8 13 -10 12 -10 -3 0 -10 -4 -16
-9 -12 -6 3 -15 -4 -21 -16 -7 -11 -14 -18 -17 -15 -3 3 -14 -6 -25 -19 -11
-14 -26 -25 -34 -25 -8 0 -12 -5 -9 -10 3 -6 -1 -13 -9 -16 -9 -3 -13 -11 -9
-17 4 -6 0 -8 -11 -4 -9 4 -15 3 -11 -2 8 -13 -24 -42 -38 -34 -7 3 -9 3 -5
-1 4 -5 -12 -26 -34 -47 -23 -21 -38 -39 -35 -39 9 0 -25 -32 -49 -46 -10 -6
-19 -18 -19 -26 0 -15 -34 -66 -67 -100 -21 -21 -23 -32 -5 -23 6 4 1 -3 -13
-14 -14 -11 -21 -21 -16 -21 5 0 0 -8 -11 -17 -11 -10 -18 -24 -15 -32 3 -8 0
-11 -6 -7 -7 4 -14 -4 -18 -19 -4 -15 -11 -22 -18 -18 -6 3 -8 2 -3 -2 4 -5 0
-19 -8 -32 -9 -13 -12 -23 -8 -23 5 0 2 -4 -6 -9 -8 -5 -16 -20 -18 -33 -2
-13 -8 -24 -13 -26 -6 -2 -10 -13 -10 -23 0 -11 -4 -17 -10 -14 -5 3 -10 -3
-10 -14 0 -12 -4 -21 -10 -21 -5 0 -7 -7 -4 -15 4 -9 0 -15 -7 -15 -11 0 -11
-3 1 -10 10 -6 11 -10 3 -10 -8 0 -13 -13 -13 -29 0 -18 -6 -31 -17 -35 -14
-6 -15 -9 -4 -15 9 -6 10 -11 2 -15 -6 -4 -11 -18 -11 -32 0 -13 -6 -24 -12
-24 -10 0 -9 -3 1 -9 8 -5 10 -14 5 -22 -12 -19 -12 -49 -1 -49 5 0 4 -7 -3
-15 -10 -12 -10 -15 0 -15 10 0 10 -3 0 -15 -9 -11 -9 -15 -1 -15 7 0 9 -5 5
-12 -10 -16 -13 -48 -5 -48 4 0 8 -11 9 -25 2 -27 34 -65 54 -65 9 0 8 -4 -2
-10 -12 -8 -9 -10 13 -10 15 0 27 -3 27 -7 0 -13 54 -12 62 0 6 9 8 8 8 -1 0
-10 5 -10 20 -2 15 8 20 8 20 -2 0 -6 6 -3 14 8 8 10 18 16 21 12 4 -4 17 -2
29 4 11 7 25 11 29 10 4 -1 10 5 13 13 4 8 10 15 16 15 5 0 6 -6 3 -12 -4 -7
1 -4 9 6 9 11 16 17 16 13 0 -5 6 -2 14 5 8 7 11 18 8 23 -3 6 -2 7 2 3 4 -3
24 5 43 18 19 13 39 21 44 18 5 -3 6 3 2 13 -3 10 -3 15 1 11 4 -3 27 13 50
38 23 24 48 44 55 44 7 0 9 5 6 10 -3 5 1 10 9 10 9 0 16 5 16 11 0 5 5 7 10
4 6 -4 10 -3 9 2 -4 23 2 35 17 29 8 -3 12 -2 9 4 -3 5 12 27 33 50 22 22 37
40 33 40 -3 0 2 5 12 11 9 5 17 17 17 25 0 8 5 12 10 9 6 -3 10 1 10 9 0 9 4
16 8 16 5 0 15 12 23 27 8 15 25 38 39 51 14 13 19 21 13 17 -7 -3 -13 -1 -13
4 0 6 7 11 15 11 8 0 15 7 15 16 0 8 4 13 9 10 8 -5 22 17 22 34 0 3 7 9 15
13 8 4 14 14 14 21 0 8 7 17 16 20 8 3 13 10 9 15 -3 5 4 16 15 24 11 7 17 17
14 20 -4 4 1 9 10 13 9 3 16 12 16 20 0 8 5 14 12 14 6 0 9 3 5 6 -6 6 1 17
36 55 20 22 22 33 5 24 -7 -4 -5 0 5 8 9 8 17 19 17 25 0 5 7 13 16 16 8 3 13
10 10 15 -3 4 3 16 14 26 11 10 20 24 20 32 0 7 5 13 11 13 5 0 7 5 4 10 -3 6
1 13 9 16 9 3 16 12 16 20 0 8 5 14 11 14 5 0 7 5 4 10 -3 6 -1 10 5 10 6 0 8
5 5 10 -3 6 -1 10 4 10 6 0 11 7 11 15 0 8 5 15 11 15 5 0 7 5 4 10 -3 6 -2
10 4 10 6 0 13 11 17 25 3 14 11 22 17 18 6 -4 8 0 4 10 -3 10 -2 17 4 17 6 0
7 4 4 10 -3 6 -1 10 5 10 6 0 16 13 21 30 6 17 16 27 22 23 5 -3 7 -1 3 5 -3
6 1 17 9 26 9 8 15 18 15 21 -1 13 13 54 19 53 19 -2 24 3 11 12 -10 6 -11 10
-2 10 6 0 12 7 12 15 0 8 4 15 9 15 5 0 12 11 15 25 4 14 11 25 17 25 6 0 7 5
4 10 -3 6 -1 10 5 10 6 0 8 5 5 10 -3 6 1 13 10 16 9 4 14 13 11 21 -3 7 1 16
9 19 8 3 11 12 8 21 -4 11 -3 14 6 9 8 -6 11 -2 9 10 -2 13 2 18 12 16 8 -2
12 0 7 4 -4 4 0 18 8 31 9 13 13 29 9 35 -4 7 -3 8 4 4 8 -5 12 0 12 13 0 12
4 21 8 21 4 0 14 16 21 35 7 19 17 35 22 35 5 0 9 9 9 20 0 11 7 23 15 26 8 4
12 10 9 15 -3 5 -1 9 5 9 5 0 8 9 6 19 -2 11 3 22 11 25 8 3 14 12 14 21 0 8
5 15 12 15 6 0 8 3 5 7 -4 3 -1 13 6 21 10 13 9 14 -3 7 -13 -8 -13 -6 -1 8 7
9 17 14 22 11 5 -3 6 2 3 10 -3 9 -2 16 3 16 5 0 10 10 10 22 1 13 9 28 18 34
9 7 16 15 16 18 -1 3 -1 7 0 9 1 3 9 35 12 50 1 6 6 18 10 25 5 7 3 12 -3 12
-6 0 -8 4 -5 10 3 5 1 18 -4 27 -6 10 -11 14 -11 9 0 -5 -9 -1 -19 8 -22 20
-71 28 -71 12 0 -6 -4 -5 -9 3 -6 10 -10 10 -16 1 -6 -9 -10 -9 -16 1 -7 11
-9 11 -9 1 0 -10 -5 -10 -20 -2 -14 7 -20 7 -20 0 0 -5 -5 -10 -11 -10 -5 0
-7 6 -4 13 4 6 0 4 -8 -5 -8 -10 -18 -18 -23 -18 -17 -1 -56 -49 -48 -61 4 -7
3 -10 -2 -7 -5 3 -15 0 -22 -8 -10 -11 -10 -14 0 -15 7 0 4 -4 -7 -8 -11 -5
-21 -13 -21 -20 -1 -6 -2 -18 -3 -27 0 -8 -5 -13 -10 -9 -5 3 -12 -4 -16 -15
-4 -11 -11 -18 -16 -15 -5 4 -9 1 -9 -5 0 -6 -4 -9 -9 -5 -6 3 -8 -3 -6 -13 2
-11 -8 -25 -26 -38 -16 -10 -27 -23 -26 -29 2 -5 -14 -22 -35 -37 -21 -16 -38
-32 -38 -37 0 -6 -9 -8 -20 -6 -11 2 -18 0 -15 -6 4 -5 1 -9 -4 -9 -6 0 -10
-6 -9 -12 2 -7 -5 -12 -14 -10 -10 2 -18 -2 -18 -8 0 -6 -5 -8 -10 -5 -6 3
-13 -1 -16 -10 -4 -9 -13 -14 -20 -11 -8 3 -14 2 -14 -2 0 -4 -10 -8 -22 -9
-28 -3 -49 26 -37 49 7 12 6 18 -2 18 -8 0 -8 4 1 15 6 8 9 19 5 25 -3 5 1 10
9 10 9 0 16 5 16 11 0 5 -4 8 -9 5 -5 -4 -4 5 2 18 7 13 15 22 19 20 4 -3 5 2
2 10 -3 9 -1 16 5 16 6 0 10 6 9 13 -2 6 2 11 9 10 7 -2 10 3 7 10 -3 8 5 19
18 26 18 9 19 10 3 6 -17 -4 -16 -2 5 15 14 11 21 20 15 20 -5 0 5 9 23 20 17
11 32 23 32 26 0 4 -6 3 -13 -2 -7 -5 -1 1 13 13 14 13 28 23 32 23 4 0 10 9
13 20 4 11 11 18 16 15 5 -4 9 -1 9 5 0 6 4 9 9 5 6 -3 15 4 21 15 6 11 15 18
21 15 5 -4 9 -2 9 4 0 6 7 8 15 5 8 -4 15 -2 15 4 0 13 66 36 80 27 5 -3 10 0
10 7 0 8 3 9 8 3 10 -14 32 -17 32 -5 0 7 6 7 20 0 15 -8 20 -8 20 2 0 8 3 9
8 3 8 -11 42 -16 42 -6 0 3 23 6 50 6 38 0 50 -4 50 -15 0 -12 2 -12 9 -2 6
11 11 10 25 -3 9 -9 16 -13 16 -8 0 4 5 1 10 -7 8 -13 10 -13 10 -1 0 11 4 9
15 -5 8 -10 15 -15 15 -10 0 5 5 5 13 0 20 -15 44 -10 78 15 24 18 28 25 18
32 -9 5 -10 9 -2 9 6 0 10 11 8 25 -1 14 2 25 7 25 5 0 2 7 -6 16 -18 18 -21
28 -5 19 15 -10 -12 36 -33 56 -10 9 -18 21 -18 27 0 6 -9 14 -20 17 -11 3
-20 10 -20 14 0 4 -6 8 -12 9 -32 2 -53 10 -51 19 2 10 -49 9 -66 -2 -6 -3
-11 0 -11 7 0 9 -3 9 -10 -2 -5 -8 -10 -10 -10 -5 0 6 -13 10 -30 10 -16 0
-30 -3 -30 -7 0 -4 -13 -3 -30 2 -18 5 -30 5 -30 0 0 -6 -11 -5 -26 0 -31 12
-34 12 -34 1z"/>
<path d="M2580 3757 c0 -4 -4 -5 -10 -2 -5 3 -10 2 -10 -4 0 -5 -9 -8 -20 -6
-11 2 -18 0 -15 -6 4 -5 -1 -9 -11 -9 -9 0 -25 -10 -35 -22 -11 -11 -19 -18
-19 -14 0 4 -7 1 -15 -8 -8 -8 -15 -24 -15 -36 0 -14 -5 -20 -13 -17 -10 4
-13 -2 -9 -19 2 -13 1 -32 -3 -41 -10 -23 -13 -31 -20 -67 -7 -32 -29 -59 -40
-48 -4 4 -3 -2 3 -14 9 -16 7 -22 -9 -33 -17 -10 -18 -15 -9 -27 9 -10 9 -14
1 -14 -6 0 -11 -6 -11 -14 0 -8 -7 -22 -16 -30 -8 -9 -11 -16 -5 -16 6 0 2 -9
-10 -21 -11 -11 -18 -27 -15 -35 3 -9 -1 -14 -12 -14 -15 0 -15 -2 -2 -10 10
-6 11 -10 3 -10 -7 0 -13 -7 -13 -15 0 -9 -7 -18 -15 -21 -8 -4 -13 -10 -10
-14 3 -5 1 -11 -5 -15 -6 -4 -8 -11 -5 -16 4 -5 1 -9 -5 -9 -7 0 -9 -7 -6 -16
4 -11 2 -15 -8 -11 -10 4 -13 1 -9 -9 3 -8 -1 -14 -8 -14 -11 0 -11 -3 1 -10
10 -6 11 -10 3 -10 -7 0 -13 -7 -13 -15 0 -8 -4 -15 -8 -15 -12 0 -33 -50 -27
-61 4 -5 1 -9 -4 -9 -6 0 -11 -7 -11 -15 0 -8 -4 -15 -9 -15 -5 0 -7 -9 -4
-20 3 -12 -1 -22 -11 -26 -12 -4 -13 -11 -6 -24 7 -13 6 -20 -3 -23 -9 -4 -9
-6 1 -6 6 -1 12 -6 12 -12 0 -5 -4 -7 -10 -4 -6 3 -7 -1 -4 -9 3 -9 10 -16 14
-16 5 0 10 -10 12 -22 2 -12 14 -28 28 -35 14 -7 21 -13 16 -13 -17 0 29 -29
47 -30 9 0 17 -5 17 -12 0 -9 3 -9 11 -1 6 6 18 9 25 6 8 -3 14 0 14 7 0 6 4
9 9 6 10 -7 25 22 22 43 -1 7 2 10 8 6 7 -3 11 3 11 15 0 14 4 19 12 14 8 -5
9 -2 5 9 -3 10 -2 17 4 17 6 0 8 4 4 9 -3 6 2 14 11 19 11 6 15 16 11 26 -4
10 -3 15 3 11 6 -3 10 -1 10 4 0 22 2 26 17 44 9 9 12 17 8 17 -5 0 0 7 11 16
10 8 12 13 4 9 -9 -4 -7 0 4 9 10 8 15 20 10 27 -4 7 -3 10 3 6 6 -4 14 4 17
18 4 14 10 24 14 21 4 -2 9 5 9 17 1 12 8 26 16 32 8 5 12 16 9 24 -3 8 0 11
6 7 5 -3 13 1 16 10 4 10 2 13 -7 8 -6 -4 -1 4 12 19 14 16 20 30 15 39 -6 11
-5 11 8 0 13 -10 15 -9 13 12 -2 16 5 31 20 42 14 10 21 23 17 32 -3 10 -1 13
6 8 7 -4 13 -2 13 3 1 6 2 16 3 21 0 6 6 14 12 18 6 4 14 20 18 35 4 15 11 25
16 22 6 -3 10 3 10 15 0 14 4 19 12 14 8 -5 9 -2 5 9 -4 12 -1 17 10 17 13 0
14 2 2 17 -10 11 -10 14 -1 9 8 -5 16 2 22 19 6 16 14 23 22 19 6 -4 8 -3 4 4
-3 6 4 18 16 28 18 13 19 15 4 10 -16 -5 -17 -4 -6 9 7 8 17 12 23 8 5 -3 7
-2 4 4 -4 5 2 19 13 30 10 12 16 24 13 27 -4 3 0 6 9 6 10 0 15 12 16 40 2 45
-15 80 -38 80 -9 0 -21 5 -28 12 -7 7 -12 8 -12 2 0 -6 -7 -11 -15 -11 -8 0
-15 3 -15 7 0 4 -7 7 -15 7 -8 0 -15 -5 -15 -11 0 -6 -4 -6 -12 2 -8 8 -17 8
-31 1 -15 -8 -18 -8 -12 1 6 9 2 9 -14 1 -11 -7 -21 -8 -21 -3 0 4 -9 8 -20 8
-11 0 -20 -4 -20 -9z"/>
</g>
</svg>
